<svg height="800px" width="800px" version="1.1" id="_x32_" xmlns="http://www.w3.org/2000/svg" xmlns:xlink="http://www.w3.org/1999/xlink" 
	 viewBox="0 0 512 512"  xml:space="preserve" class="fill-white text-white" aria-hidden="true" role="presentation">
<g>
	<path d="M214.834,183.18c15.818,0,15.822-24.521,0-24.521C199.018,158.659,199.022,183.18,214.834,183.18z"/>
	<path d="M296.584,183.18c15.812,0,15.816-24.521,0-24.521C280.766,158.659,280.77,183.18,296.584,183.18z"/>
	<path d="M65.535,446.012c-0.094-0.108-0.167-0.224-0.261-0.332c-0.087-0.101-0.192-0.188-0.278-0.289
		C65.177,445.6,65.354,445.802,65.535,446.012z"/>
	<path d="M452.016,380.018C458.268,401.047,446.484,361.39,452.016,380.018L452.016,380.018z"/>
	<path d="M202.031,362.952C202.309,363.097,202.262,363.068,202.031,362.952L202.031,362.952z"/>
	<path d="M197.504,360.566c0.166,0.087,0.281,0.144,0.437,0.231C197.67,360.653,197.504,360.566,197.504,360.566z"/>
	<path d="M452.016,380.018c-3.349-11.281-7.872-22.2-13.36-32.606c-3.272-6.197-6.896-12.214-10.833-18.013
		c-2.734-4.028-11.064-12.004-11.078-16.148c6.982-13.667,9.961-29.562,7.668-44.784c-1.016-6.776-3.098-13.443-6.367-19.474
		c-1.62-2.986-3.529-5.807-5.688-8.432c-3.338-4.064-3.583-3.789-4.472-8.656c-0.05-12.388-2.759-25.194-7.604-36.591
		c-2.165-5.098-4.863-10.03-8.327-14.369c-3.597-4.505-11.472-8.055-12.434-13.262c-1.005-5.416,8.67-8.771,12.662-12.995
		c5.449-5.763,9.158-13.153,10.507-20.978c2.007-11.635-1.374-25.643-12.824-31.138c0.315,0.166,0.632,0.325,0.947,0.492
		c-21.376-11.151-41.942-24.363-60.462-39.838c-1.753-4.021,0-12.648,0-16.994c0-7.441,0.915-15.454-3.026-22.143
		c-6.533-11.085-20.696-13.537-31.265-6.942c-4.266,2.669-8.179,7.854-12,3.666C272.837,8.52,256.205-10.715,239.569,7.45
		c-3.952,3.789-7.466,8.172-11.158,12.214c-4.711,5.156-6.75,1.424-12.239-2.01c-9.962-6.22-22.783-5.742-30.455,4.056
		c-5.261,6.718-4.65,14.629-4.65,22.591c0,6.248,0,12.496,0,18.737c0,3.746-18.284,14.238-21.217,16.278
		c-11.458,7.969-23.382,15.272-35.686,21.868c-12.467,6.682-17.894,18.244-15.432,32.52c1.348,7.824,5.058,15.222,10.507,20.985
		c2.214,2.344,4.697,4.419,7.362,6.227c5.738,3.883,5.933,3,4.718,10.052c-11.718,6.19-18.502,18.512-22.569,30.668
		c-2.202,6.587-3.72,13.421-4.559,20.313c-0.405,3.304-0.644,6.631-0.658,9.957c-0.889,4.866-1.135,4.592-4.473,8.656
		c-11.111,13.516-14.513,31.76-12.022,48.79c1.218,8.316,3.822,16.415,7.636,23.893c-0.014,4.158-8.341,12.12-11.075,16.155
		c-8.544,12.575-15.602,26.178-20.83,40.46c-9.198,25.136-16.299,53.548,2.506,75.821c24.638,28.723,65.762,43.902,101.131,53.772
		c44.523,12.431,90.909,16.004,136.662,9.018c40.452-6.176,81.982-18.686,116.714-40.792c15.758-10.03,33.485-24.095,37.741-43.359
		C460.65,410.173,455.994,393.396,452.016,380.018z M203.007,74.224c0-12.98,0-25.953,0-38.934
		c8.848,5.532,21.152,16.98,31.833,9.394c7.968-5.662,14.307-15.194,20.869-22.381c6.093,6.675,11.82,14.34,18.566,20.342
		c10.424,11.44,24.648-1.425,34.136-7.355c0,12.547,0,25.086,0,37.633c0,1.714,0,3.42,0,5.134c0,1.721-19.601,4.252-21.802,4.542
		c-10.29,1.338-20.545,1.613-30.9,1.613c-9.173,0-18.259-0.181-27.396-1.194c-7.307-0.803-14.586-2.032-21.708-3.854
		C202.052,77.992,203.007,78.195,203.007,74.224z M150.153,194.23c0.785-7.145,1.743-14.274,3.034-21.347
		c0.622-3.414,1.316-6.812,2.097-10.189c2.853,0.159,5.738,0.044,8.544-0.528c10.417-2.104,16.119-10.63,21.691-18.852
		c13.414-19.785,34.327-31.688,57.684-20.089c4.476,2.22,8.638,5.041,12.507,8.2c20.566-16.777,46.802-17.376,64.323,3.869
		c5.894,7.145,9.943,16.169,17.258,22.056c3.72,2.994,8.183,4.708,12.915,5.221c4.484,0.478,5.59-1.606,6.69,3.55
		c0.947,4.433,1.757,8.895,2.451,13.378c3.54,22.938,10.916,57.887-21.77,59.623c-12.572,0.665-22.992-11.679-33.008-17.854
		c-13.204-8.15-28.39-11.346-42.614-3.55c-4.676,2.56-4.528,5.047-9.358,1.88c-3.092-2.025-6.41-3.696-9.929-4.838
		c-6.758-2.191-13.949-2.221-20.78-0.348c-14.81,4.064-25.06,15.569-38.192,22.67c-8.435,4.57-22.757,1.982-29.2-5.221
		C145.666,221.991,148.851,206.046,150.153,194.23z M248.446,338.38c0,8.953,0,17.898,0,26.85c0,41.638,0,83.283,0,124.922
		c-3.168-0.087-33.572-1.317-33.572-3.117c0-3.232,0-6.458,0-9.69c0-14.051,0-28.101,0-42.152c0-22.988,7.329-61.626-17.37-74.628
		c-19.59-10.848-39.01-22.113-58.198-33.677c-12.793-7.709-22.862-15.801-28.004-30.4c-4.826-13.711-4.682-30.668,4.904-42.361
		c9.534,20.717,29.608,33.322,51.372,38.029c5.785,1.251,8.03,7.232,12.337,11.354c4.154,3.97,8.822,7.376,13.71,10.377
		c10.189,6.255,21.431,10.854,32.94,14.028c2.408,0.665,21.882,3.927,21.882,4.563C248.446,334.446,248.446,336.413,248.446,338.38z
		 M234.941,315.059c-15.36-3.602-31.233-10.016-43.233-20.486c25.534-0.912,47.778-16.169,63.293-35.651
		c0.234,0.376,0.474,0.752,0.708,1.128c0.235-0.376,0.474-0.752,0.709-1.128c15.515,19.482,37.758,34.739,63.293,35.651
		C297.525,313.982,263.339,321.777,234.941,315.059z M375.024,325.132c-20.118,12.192-40.456,24.146-61.108,35.419
		c-24.327,12.995-17.363,49.738-17.363,72.582c0,14.289,0,28.579,0,42.867c0,3.587,0,7.174,0,10.754
		c0,2.299-30.075,3.305-33.572,3.399c0-41.06,0-82.127,0-123.187c0-9.227,0-18.447,0-27.674c0-2.169,0-4.338,0-6.508
		c0-1.685,15.628-3.276,18.176-3.897c21.46-5.272,47.164-16.076,58.94-35.991c23.162-4.15,44.99-16.755,55.118-38.767
		C414.944,278.142,397.712,311.37,375.024,325.132z"/>
	<path d="M201.846,362.851c0.073,0.043,0.13,0.072,0.184,0.101C201.984,362.923,201.912,362.888,201.846,362.851z"/>
	<path d="M200.437,362.114c0.682,0.354,1.128,0.592,1.41,0.738C201.514,362.677,201,362.402,200.437,362.114z"/>
	<path d="M197.941,360.797c0.568,0.297,1.588,0.839,2.496,1.316C199.811,361.78,198.976,361.34,197.941,360.797z"/>
	<path d="M419.482,251.856C419.565,252.037,419.598,252.11,419.482,251.856L419.482,251.856z"/>
	<path d="M419.482,251.856c-0.062-0.137-0.134-0.289-0.134-0.289C419.428,251.741,419.446,251.777,419.482,251.856z"/>
</g>
</svg>